<?xml version="1.0" encoding="UTF-8" standalone="no"?>
<!-- Created with Inkscape (http://www.inkscape.org/) -->

<svg
   xmlns:dc="http://purl.org/dc/elements/1.1/"
   xmlns:cc="http://creativecommons.org/ns#"
   xmlns:rdf="http://www.w3.org/1999/02/22-rdf-syntax-ns#"
   xmlns:svg="http://www.w3.org/2000/svg"
   xmlns="http://www.w3.org/2000/svg"
   xmlns:xlink="http://www.w3.org/1999/xlink"
   xmlns:sodipodi="http://sodipodi.sourceforge.net/DTD/sodipodi-0.dtd"
   xmlns:inkscape="http://www.inkscape.org/namespaces/inkscape"
   width="209.79202"
   height="200.05457"
   id="svg2"
   version="1.1"
   inkscape:version="0.48.4 r9939"
   sodipodi:docname="petersen.svg">
  <defs
     id="defs4" />
  <sodipodi:namedview
     id="base"
     pagecolor="#414141"
     bordercolor="#666666"
     borderopacity="1.0"
     inkscape:pageopacity="1"
     inkscape:pageshadow="2"
     inkscape:zoom="0.98994949"
     inkscape:cx="-91.267298"
     inkscape:cy="80.01178"
     inkscape:document-units="px"
     inkscape:current-layer="layer1"
     showgrid="false"
     inkscape:object-nodes="true"
     inkscape:snap-bbox="false"
     inkscape:snap-global="true"
     inkscape:snap-object-midpoints="true"
     fit-margin-top="0"
     fit-margin-left="0"
     fit-margin-right="0"
     fit-margin-bottom="0"
     inkscape:window-width="1855"
     inkscape:window-height="1056"
     inkscape:window-x="65"
     inkscape:window-y="24"
     inkscape:window-maximized="1" />
  <metadata
     id="metadata7">
    <rdf:RDF>
      <cc:Work
         rdf:about="">
        <dc:format>image/svg+xml</dc:format>
        <dc:type
           rdf:resource="http://purl.org/dc/dcmitype/StillImage" />
      </cc:Work>
    </rdf:RDF>
  </metadata>
  <g
     inkscape:label="Layer 1"
     inkscape:groupmode="layer"
     id="layer1"
     transform="translate(-147.64214,-127.95088)">
    <path
       id="path2985-3"
       style="color:#000000;fill:none;stroke:#eeeeec;stroke-width:2.44802332;stroke-miterlimit:4;stroke-opacity:1;marker:none;visibility:visible;display:inline;overflow:visible;enable-background:accumulate"
       d="m 252.53815,171.82924 14.92714,45.55804 m 0,0 47.95438,0.11397 m -38.7289,28.27038 14.71029,45.62848 m 0,0 -38.86292,-28.08598 m 0,0 -38.86292,28.08598 m 14.7103,-45.62848 -38.7289,-28.27038 m 47.95439,-0.11397 14.92714,-45.55804 m 61.47993,150.75682 -122.95988,0 m 0,0 -37.99669,-116.9418 m 0,0 99.47664,-72.274 m 99.47663,72.27401 -99.47663,-72.27401 m 0,0 0,38.45898 m 24.15262,73.94239 38.7289,-28.27038 m 0,0 36.59511,-11.85698 m 0,0 -37.9967,116.94179 m 0,0 -22.61702,-31.18595 m -53.79005,-74.01283 -47.95439,0.11397 m 0,0 -36.59511,-11.85699 m 37.99669,116.9418 22.61702,-31.18595 m 0,0 14.7103,-45.62848 m 0,0 24.15262,17.5425 m 0,0 24.15263,-17.5425 m 0,0 c 0,0 -10.1799,-29.22647 -9.22548,-28.38435 m 0,0 -29.85428,0 m 0,0 -9.22549,28.38435"
       inkscape:connector-curvature="0"
       sodipodi:nodetypes="cccccccccccccccccccccccccccccccccccccccccccccccccc" />
    <path
       sodipodi:type="arc"
       style="color:#000000;fill:#e45252;fill-opacity:1;stroke:#ebc0c0;stroke-width:2.36424899;stroke-miterlimit:4;stroke-opacity:1;stroke-dasharray:none;marker:none;visibility:visible;display:inline;overflow:visible;enable-background:accumulate"
       id="path3779"
       sodipodi:cx="68.571426"
       sodipodi:cy="57.362183"
       sodipodi:rx="9.2857141"
       sodipodi:ry="9.2857141"
       d="m 77.857141,57.362183 c 0,5.128358 -4.157356,9.285714 -9.285715,9.285714 -5.128358,0 -9.285714,-4.157356 -9.285714,-9.285714 0,-5.128359 4.157356,-9.285715 9.285714,-9.285715 5.128359,0 9.285715,4.157356 9.285715,9.285715 z"
       transform="matrix(0.51771693,0,0,0.51771693,117.56093,175.94689)" />
    <use
       x="0"
       y="0"
       xlink:href="#path3779"
       id="use3785"
       transform="translate(99.476637,-72.274003)"
       width="744.09448"
       height="1052.3622" />
    <use
       x="0"
       y="0"
       xlink:href="#use3785"
       id="use3787"
       transform="translate(99.476631,72.27401)"
       width="744.09448"
       height="1052.3622" />
    <use
       x="0"
       y="0"
       xlink:href="#use3787"
       id="use3789"
       width="744.09448"
       height="1052.3622" />
    <use
       x="0"
       y="0"
       xlink:href="#use3789"
       id="use3791"
       transform="translate(-37.996695,116.9418)"
       width="744.09448"
       height="1052.3622" />
    <use
       x="0"
       y="0"
       xlink:href="#use3791"
       id="use3793"
       transform="translate(-22.61702,-31.185951)"
       width="744.09448"
       height="1052.3622" />
    <use
       x="0"
       y="0"
       xlink:href="#use3793"
       id="use3795"
       transform="translate(24.018607,-73.898861)"
       width="744.09448"
       height="1052.3622" />
    <use
       x="0"
       y="0"
       xlink:href="#path3779"
       id="use3817"
       transform="translate(99.476637,-33.81502)"
       width="744.09448"
       height="1052.3622" />
    <use
       x="0"
       y="0"
       xlink:href="#path3779"
       id="use3821"
       transform="translate(36.595107,11.856986)"
       width="744.09448"
       height="1052.3622" />
    <use
       x="0"
       y="0"
       xlink:href="#use3821"
       id="use3823"
       transform="translate(1.4015808,105.08481)"
       width="744.09448"
       height="1052.3622" />
    <use
       x="0"
       y="0"
       xlink:href="#path3779"
       id="use3825"
       transform="translate(60.613708,85.755851)"
       width="744.09448"
       height="1052.3622" />
  </g>
</svg>
